<?xml version="1.0" encoding="utf-8"?>
<!-- Generator: Adobe Illustrator 27.2.0, SVG Export Plug-In . SVG Version: 6.00 Build 0)  -->
<svg version="1.1" id="Layer_1" xmlns="http://www.w3.org/2000/svg" xmlns:xlink="http://www.w3.org/1999/xlink" x="0px" y="0px"
	 viewBox="0 0 722 745" style="enable-background:new 0 0 722 745;" xml:space="preserve">
<style type="text/css">
	.st0{opacity:0.2;fill-rule:evenodd;clip-rule:evenodd;fill:#FF69B4;}
</style>
<path class="st0" d="M471.16,372.72c13.99-1.66,25.99-4.37,33.35-8.57c14.59-8.57,25.22-22.55,29.55-38.93
	c4.33-16.37,2.02-33.79-6.47-48.42c-8.45-14.67-22.39-25.38-38.72-29.79c-16.33-4.45-33.75-2.22-48.46,6.14
	c-7.36,4.24-15.68,13.26-24.09,24.58c5.58-12.98,9.22-24.7,9.22-33.19c0-17.02-6.75-33.31-18.76-45.31
	c-12-12-28.33-18.76-45.31-18.76c-16.98,0-33.31,6.75-45.31,18.76c-12,12-18.76,28.33-18.76,45.31c0,8.45,3.64,20.17,9.22,33.19
	c-8.45-11.32-16.77-20.33-24.09-24.58c-14.71-8.37-32.13-10.59-48.46-6.14c-16.33,4.45-30.23,15.16-38.72,29.79
	c-8.45,14.67-10.79,32.05-6.47,48.42s14.96,30.36,29.55,38.93c7.36,4.24,19.32,6.91,33.35,8.57c-13.99,1.66-25.99,4.37-33.35,8.57
	c-7.36,4.16-13.78,9.78-18.96,16.45s-8.97,14.31-11.2,22.47c-2.22,8.16-2.79,16.65-1.7,25.06c1.09,8.37,3.84,16.45,8.04,23.77
	c4.24,7.32,9.86,13.74,16.57,18.88c6.71,5.13,14.39,8.89,22.55,11.03s16.69,2.67,25.06,1.54c8.37-1.13,16.45-3.92,23.73-8.21
	c7.36-4.24,15.68-13.26,24.09-24.58c-5.58,12.98-9.22,24.7-9.22,33.19c0,17.02,6.75,33.31,18.76,45.31
	c11.96,12.05,28.25,18.8,45.27,18.8s33.31-6.75,45.31-18.76c12-12,18.76-28.33,18.76-45.31c0-8.45-3.64-20.17-9.22-33.19
	c8.45,11.32,16.77,20.33,24.09,24.58c7.28,4.28,15.36,7.07,23.73,8.21s16.9,0.61,25.06-1.54s15.84-5.9,22.55-11.03
	s12.33-11.56,16.57-18.88c4.24-7.32,6.95-15.4,8.04-23.77c1.09-8.37,0.53-16.9-1.7-25.06c-2.22-8.16-6.02-15.8-11.2-22.47
	s-11.64-12.29-18.96-16.45C497.15,377.08,485.15,374.38,471.16,372.72z M393.48,244.55c0-8.49-3.4-16.65-9.38-22.68
	c-6.02-6.02-14.15-9.38-22.68-9.38c-8.49,0-16.65,3.4-22.68,9.38c-6.02,6.02-9.38,14.15-9.38,22.68c0.32,2.22,0.81,4.45,1.46,6.59
	c1.25,4.2,3.19,9.42,5.86,15.48c5.34,12.13,12.69,25.91,20.41,39.21l4.33,7.36l4.33-7.36c7.72-13.3,15.08-27.08,20.41-39.21
	c2.67-6.1,4.61-11.28,5.86-15.52c0.65-2.1,1.01-3.72,1.21-4.93C393.48,245.11,393.48,244.59,393.48,244.55z M222.66,292.61
	c-4.24,7.36-5.42,16.09-3.19,24.33c2.18,8.21,7.56,15.2,14.92,19.44c2.1,0.85,4.24,1.54,6.43,2.06c4.28,1.01,9.78,1.94,16.33,2.67
	c13.18,1.46,28.78,1.94,44.18,1.94c2.87,0,5.7,0,8.53-0.08c-1.37-2.51-2.79-4.97-4.2-7.44c-7.24-12.85-15.2-25.26-23.77-37.27
	c-3.23-4.49-6.71-8.77-10.47-12.81c-1.17-1.25-2.38-2.43-3.68-3.52c-0.81-0.69-1.21-0.97-1.29-1.01
	c-7.36-4.24-16.09-5.42-24.33-3.19C233.9,279.87,226.9,285.25,222.66,292.61z M266.43,464.55c-7.36,4.16-16.09,5.3-24.25,3.07
	c-8.16-2.22-15.12-7.56-19.36-14.92c-4.24-7.32-5.38-16.05-3.23-24.21c2.18-8.16,7.48-15.16,14.79-19.44c0.04,0,0.53-0.24,1.5-0.65
	c1.17-0.4,2.79-0.89,4.89-1.41c4.28-1.01,9.78-1.94,16.33-2.67c14.67-1.41,29.43-2.06,44.18-1.94c2.87,0,5.7,0,8.53,0.08
	c-1.37,2.51-2.79,4.97-4.2,7.44c-7.68,13.34-15.93,26.6-23.77,37.27c-3.23,4.49-6.71,8.77-10.47,12.81
	C269.87,461.64,268.21,463.18,266.43,464.55z M393.48,500.89c0,8.49-3.4,16.65-9.38,22.68c-6.02,6.02-14.15,9.38-22.68,9.38
	c-8.49,0-16.65-3.4-22.68-9.38c-6.02-6.02-9.38-14.15-9.38-22.68c0.32-2.22,0.81-4.45,1.46-6.59c1.25-4.2,3.19-9.42,5.86-15.48
	c5.34-12.13,12.69-25.91,20.41-39.21l4.33-7.36l4.33,7.36c7.72,13.3,15.08,27.08,20.41,39.21c2.67,6.1,4.61,11.28,5.86,15.52
	C392.67,496.49,393.15,498.67,393.48,500.89z M500.19,292.61c4.24,7.36,5.42,16.09,3.19,24.33c-2.18,8.21-7.56,15.2-14.92,19.44
	c-2.1,0.85-4.24,1.54-6.43,2.06c-4.28,1.01-9.78,1.94-16.33,2.67c-13.22,1.46-28.78,1.94-44.18,1.94c-2.87,0-5.7,0-8.53-0.08
	l4.2-7.44c7.68-13.34,15.93-26.6,23.77-37.27c3.23-4.49,6.71-8.77,10.47-12.81c1.46-1.62,2.71-2.75,3.64-3.52
	c0.85-0.69,1.29-0.97,1.33-1.01c7.36-4.24,16.09-5.42,24.33-3.19C488.95,279.87,495.94,285.25,500.19,292.61z M456.41,464.55
	c7.36,4.16,16.09,5.3,24.25,3.07c8.16-2.22,15.12-7.56,19.36-14.92c4.24-7.32,5.38-16.05,3.23-24.21
	c-2.18-8.16-7.48-15.16-14.79-19.44c-0.08,0-0.53-0.24-1.5-0.65c-1.62-0.57-3.23-1.01-4.89-1.41c-5.38-1.21-10.83-2.1-16.33-2.67
	c-14.67-1.41-29.43-2.06-44.18-1.94c-2.87,0-5.7,0-8.53,0.08c1.37,2.51,2.79,4.97,4.2,7.44c7.68,13.34,15.93,26.6,23.77,37.27
	c3.92,5.34,7.44,9.62,10.47,12.81C452.98,461.64,454.63,463.18,456.41,464.55z M361.42,404.77c8.49,0,16.65-3.4,22.68-9.38
	c6.02-6.02,9.38-14.15,9.38-22.68c0-8.49-3.4-16.65-9.38-22.68c-6.02-6.02-14.15-9.38-22.68-9.38c-8.49,0-16.65,3.4-22.68,9.38
	c-6.02,6.02-9.38,14.15-9.38,22.68c0,8.49,3.4,16.65,9.38,22.68C344.77,401.38,352.93,404.77,361.42,404.77z"/>
</svg>
