<?xml version="1.0" encoding="utf-8"?>
<!-- Generator: Adobe Illustrator 27.2.0, SVG Export Plug-In . SVG Version: 6.00 Build 0)  -->
<svg version="1.1" id="Layer_1" xmlns="http://www.w3.org/2000/svg" xmlns:xlink="http://www.w3.org/1999/xlink" x="0px" y="0px"
	 viewBox="0 0 100 100" style="enable-background:new 0 0 100 100;" xml:space="preserve">
<style type="text/css">
	.st0{fill-rule:evenodd;clip-rule:evenodd;fill:#0047AB;}
</style>
<path class="st0" d="M50.27,2.99c1.57,0,3.08,0.63,4.2,1.74c1.11,1.11,1.74,2.62,1.74,4.2V40.2L83.3,24.56
	c0.68-0.4,1.42-0.65,2.2-0.76c0.78-0.11,1.56-0.06,2.32,0.14c0.76,0.2,1.47,0.55,2.09,1.02c0.62,0.48,1.14,1.07,1.54,1.75
	c0.39,0.68,0.65,1.43,0.75,2.2c0.1,0.78,0.05,1.57-0.16,2.32c-0.21,0.76-0.56,1.46-1.04,2.08c-0.48,0.62-1.08,1.14-1.76,1.52
	L62.15,50.49l27.09,15.64c0.68,0.39,1.28,0.9,1.76,1.52c0.48,0.62,0.83,1.33,1.04,2.08c0.21,0.76,0.26,1.54,0.16,2.32
	c-0.1,0.78-0.35,1.53-0.75,2.2c-0.39,0.68-0.91,1.27-1.54,1.75c-0.62,0.48-1.33,0.82-2.09,1.02c-0.76,0.2-1.55,0.25-2.32,0.14
	c-0.78-0.11-1.52-0.36-2.2-0.76L56.21,60.77v31.28c0,1.57-0.63,3.08-1.74,4.2c-1.11,1.11-2.62,1.74-4.2,1.74s-3.08-0.63-4.2-1.74
	c-1.11-1.11-1.74-2.62-1.74-4.2V60.77L17.25,76.41c-0.68,0.4-1.42,0.65-2.2,0.76c-0.78,0.11-1.56,0.06-2.32-0.14
	c-0.76-0.2-1.47-0.55-2.09-1.02c-0.62-0.48-1.14-1.07-1.54-1.75c-0.39-0.68-0.65-1.43-0.75-2.2c-0.1-0.78-0.05-1.57,0.16-2.32
	c0.21-0.76,0.56-1.46,1.04-2.08c0.48-0.62,1.08-1.14,1.76-1.52L38.4,50.49L11.31,34.85c-1.35-0.79-2.34-2.09-2.74-3.6
	c-0.4-1.52-0.19-3.13,0.6-4.49c0.78-1.36,2.07-2.35,3.59-2.76c1.51-0.41,3.13-0.21,4.49,0.57L44.33,40.2V8.92
	c0-1.57,0.63-3.08,1.74-4.2C47.19,3.61,48.7,2.99,50.27,2.99L50.27,2.99z"/>
</svg>
