<?xml version="1.0" encoding="utf-8"?>
<!-- Generator: Adobe Illustrator 27.2.0, SVG Export Plug-In . SVG Version: 6.00 Build 0)  -->
<svg version="1.1" id="Layer_1" xmlns="http://www.w3.org/2000/svg" xmlns:xlink="http://www.w3.org/1999/xlink" x="0px" y="0px"
	 viewBox="0 0 1080 1080" style="enable-background:new 0 0 1080 1080;" xml:space="preserve">
<style type="text/css">
	.st0{fill-rule:evenodd;clip-rule:evenodd;fill:#FF69B4;}
</style>
<path class="st0" d="M694.85,522.38c17.14-2.04,31.81-5.34,40.8-10.51c17.87-10.48,30.88-27.6,36.17-47.63
	c5.3-20.03,2.46-41.34-7.91-59.28c-10.36-17.94-27.4-31.06-47.39-36.49c-19.99-5.43-41.32-2.73-59.34,7.51
	c-8.98,5.18-19.18,16.24-29.5,30.09c6.83-15.89,11.3-30.25,11.3-40.6c0-20.81-8.27-40.76-22.98-55.48
	C601.3,295.27,581.34,287,560.53,287c-20.81,0-40.76,8.27-55.48,22.98c-14.71,14.71-22.98,34.67-22.98,55.48
	c0,10.36,4.47,24.71,11.3,40.6c-10.32-13.85-20.52-24.91-29.5-30.09c-18.01-10.24-39.34-12.94-59.34-7.51
	c-19.99,5.43-37.03,18.54-47.39,36.49c-10.36,17.94-13.2,39.25-7.91,59.28c5.3,20.03,18.3,37.15,36.17,47.63
	c8.98,5.18,23.66,8.47,40.8,10.51c-17.14,2.04-31.81,5.34-40.8,10.51c-8.99,5.11-16.89,11.96-23.23,20.14
	c-6.34,8.18-11,17.53-13.71,27.51c-2.71,9.99-3.42,20.41-2.09,30.67c1.33,10.26,4.68,20.16,9.86,29.12
	c5.17,8.96,12.07,16.81,20.29,23.1c8.22,6.28,17.6,10.88,27.6,13.53c10,2.64,20.43,3.28,30.68,1.88
	c10.25-1.4,20.13-4.82,29.05-10.05c8.98-5.18,19.18-16.24,29.5-30.09c-6.83,15.89-11.3,30.25-11.3,40.6
	c0,20.81,8.27,40.76,22.98,55.48c14.71,14.71,34.67,22.98,55.48,22.98c20.81,0,40.76-8.27,55.48-22.98
	c14.71-14.71,22.98-34.67,22.98-55.48c0-10.36-4.47-24.71-11.3-40.6c10.32,13.85,20.52,24.91,29.5,30.09
	c8.93,5.23,18.8,8.65,29.05,10.05c10.25,1.4,20.68,0.76,30.69-1.88c10-2.64,19.38-7.24,27.6-13.53c8.22-6.29,15.11-14.14,20.29-23.1
	s8.52-18.86,9.86-29.12c1.33-10.26,0.62-20.68-2.09-30.67c-2.71-9.99-7.37-19.33-13.71-27.51c-6.34-8.18-14.23-15.02-23.23-20.14
	C726.67,527.71,712,524.42,694.85,522.38z M599.76,365.46c0-10.4-4.13-20.38-11.49-27.74c-7.36-7.36-17.34-11.49-27.74-11.49
	c-10.4,0-20.38,4.13-27.74,11.49c-7.36,7.36-11.49,17.34-11.49,27.74c0.39,2.73,0.99,5.43,1.77,8.08
	c1.53,5.14,3.92,11.53,7.18,18.95c6.51,14.83,15.53,31.7,24.99,47.98l5.3,9.02l5.3-9.02c9.45-16.28,18.44-33.15,24.99-47.98
	c3.26-7.45,5.65-13.81,7.18-18.99c0.78-2.55,1.22-4.55,1.49-6.04C599.76,366.16,599.76,365.54,599.76,365.46z M390.67,424.3
	c-5.2,9.01-6.61,19.72-3.92,29.77c2.69,10.05,9.27,18.62,18.28,23.82c2.55,1.02,5.17,1.86,7.85,2.51
	c5.26,1.26,11.96,2.35,20.01,3.26c16.12,1.77,35.23,2.39,54.1,2.35c3.53,0,6.98,0,10.43-0.08c-1.69-3.04-3.41-6.08-5.14-9.1
	c-8.88-15.72-18.6-30.95-29.11-45.62c-3.95-5.49-8.24-10.73-12.83-15.69c-1.42-1.52-2.93-2.96-4.51-4.32
	c-0.98-0.86-1.49-1.18-1.57-1.26c-9.01-5.2-19.72-6.61-29.77-3.92S395.87,415.29,390.67,424.3z M444.26,634.81
	c-9.01,5.12-19.67,6.47-29.67,3.76c-10-2.71-18.52-9.27-23.69-18.24c-5.18-8.97-6.6-19.63-3.95-29.64
	c2.65-10.01,9.15-18.58,18.09-23.81c0.04,0,0.63-0.31,1.84-0.78c1.45-0.51,3.41-1.1,6-1.73c5.26-1.26,11.96-2.35,20.01-3.26
	c17.98-1.75,36.04-2.54,54.1-2.35c3.53,0,6.98,0,10.43,0.08c-1.69,3.04-3.41,6.08-5.14,9.1c-9.42,16.32-19.5,32.56-29.11,45.62
	c-3.94,5.49-8.23,10.74-12.83,15.69C448.44,631.23,446.41,633.1,444.26,634.81z M599.76,679.29c0,10.4-4.13,20.38-11.49,27.74
	c-7.36,7.36-17.34,11.49-27.74,11.49c-10.4,0-20.38-4.13-27.74-11.49c-7.36-7.36-11.49-17.34-11.49-27.74
	c0.39-2.73,0.99-5.43,1.77-8.08c1.53-5.14,3.92-11.53,7.18-18.95c6.51-14.83,15.53-31.7,24.99-47.98l5.3-9.02l5.3,9.02
	c9.45,16.28,18.44,33.15,24.99,47.98c3.26,7.45,5.65,13.81,7.18,18.99C598.79,673.88,599.38,676.57,599.76,679.29z M730.39,424.3
	c5.2,9.01,6.61,19.72,3.92,29.77c-2.69,10.05-9.27,18.62-18.28,23.82c-2.55,1.02-5.17,1.86-7.85,2.51
	c-5.26,1.26-11.96,2.35-20.01,3.26c-16.16,1.77-35.23,2.39-54.1,2.35c-3.53,0-6.98,0-10.43-0.08l5.14-9.1
	c9.41-16.32,19.5-32.56,29.11-45.62c3.94-5.49,8.23-10.74,12.83-15.69c1.8-1.96,3.33-3.37,4.47-4.32c1.02-0.86,1.57-1.18,1.61-1.26
	c9.01-5.2,19.72-6.61,29.77-3.92C716.62,408.72,725.19,415.29,730.39,424.3z M676.81,634.81c9.01,5.12,19.67,6.47,29.67,3.76
	c10-2.71,18.52-9.27,23.69-18.24c5.18-8.97,6.6-19.63,3.95-29.64c-2.65-10.01-9.15-18.58-18.09-23.81c-0.08,0-0.63-0.31-1.84-0.78
	c-1.97-0.68-3.97-1.26-6-1.73c-6.6-1.49-13.28-2.58-20.01-3.26c-17.98-1.75-36.04-2.54-54.1-2.35c-3.53,0-6.98,0-10.43,0.08
	c1.69,3.04,3.41,6.08,5.14,9.1c9.41,16.32,19.5,32.56,29.11,45.62c4.79,6.55,9.1,11.77,12.83,15.69
	C672.62,631.23,674.65,633.09,676.81,634.81z M560.53,561.6c10.4,0,20.38-4.13,27.74-11.49s11.49-17.34,11.49-27.74
	c0-10.4-4.13-20.38-11.49-27.74c-7.36-7.36-17.34-11.49-27.74-11.49c-10.4,0-20.38,4.13-27.74,11.49
	c-7.36,7.36-11.49,17.34-11.49,27.74c0,10.4,4.13,20.38,11.49,27.74S550.13,561.6,560.53,561.6z"/>
</svg>
