<?xml version="1.0" encoding="utf-8"?>
<!-- Generator: Adobe Illustrator 27.2.0, SVG Export Plug-In . SVG Version: 6.00 Build 0)  -->
<svg version="1.1" id="Layer_1" xmlns="http://www.w3.org/2000/svg" xmlns:xlink="http://www.w3.org/1999/xlink" x="0px" y="0px"
	 viewBox="0 0 1080 1080" style="enable-background:new 0 0 1080 1080;" xml:space="preserve">
<style type="text/css">
	.st0{clip-path:url(#SVGID_00000078004505109623138110000005711802694901021878_);}
	.st1{fill-rule:evenodd;clip-rule:evenodd;fill:#87A96B;}
</style>
<g>
	<defs>
		<rect id="SVGID_1_" x="267.22" y="235.22" width="544.78" height="544.78"/>
	</defs>
	<clipPath id="SVGID_00000129202988815347657180000010093199085236615589_">
		<use xlink:href="#SVGID_1_"  style="overflow:visible;"/>
	</clipPath>
	<g style="clip-path:url(#SVGID_00000129202988815347657180000010093199085236615589_);">
		<path class="st1" d="M539.61,609.76c27.09,0,53.07-10.76,72.23-29.92c19.16-19.16,29.92-45.14,29.92-72.23
			c0-27.09-10.76-53.07-29.92-72.23c-19.16-19.16-45.14-29.92-72.23-29.92c-27.09,0-53.07,10.76-72.23,29.92
			c-19.16,19.16-29.92,45.14-29.92,72.23c0,27.09,10.76,53.07,29.92,72.23C486.54,599,512.52,609.76,539.61,609.76z M539.61,643.81
			c36.12,0,70.76-14.35,96.3-39.89c25.54-25.54,39.89-60.18,39.89-96.3s-14.35-70.76-39.89-96.3
			c-25.54-25.54-60.18-39.89-96.3-39.89c-36.12,0-70.76,14.35-96.3,39.89c-25.54,25.54-39.89,60.18-39.89,96.3
			s14.35,70.76,39.89,96.3C468.85,629.46,503.49,643.81,539.61,643.81z M539.61,235.22c4.52,0,8.85,1.79,12.04,4.99
			c3.19,3.19,4.99,7.52,4.99,12.04v68.1c0,4.52-1.79,8.85-4.99,12.04c-3.19,3.19-7.52,4.99-12.04,4.99c-4.52,0-8.85-1.79-12.04-4.99
			c-3.19-3.19-4.99-7.52-4.99-12.04v-68.1c0-4.52,1.79-8.85,4.99-12.04C530.77,237.02,535.1,235.22,539.61,235.22L539.61,235.22z
			 M539.61,677.85c4.52,0,8.85,1.79,12.04,4.98c3.19,3.19,4.99,7.53,4.99,12.04v68.1c0,4.51-1.79,8.84-4.99,12.04
			c-3.19,3.19-7.52,4.98-12.04,4.98c-4.52,0-8.85-1.79-12.04-4.98c-3.19-3.19-4.99-7.53-4.99-12.04v-68.1
			c0-4.51,1.79-8.84,4.99-12.04C530.77,679.65,535.1,677.85,539.61,677.85z M812,507.61c0,4.52-1.79,8.85-4.98,12.04
			c-3.19,3.19-7.53,4.99-12.04,4.99h-68.1c-4.51,0-8.84-1.79-12.04-4.99c-3.19-3.19-4.98-7.52-4.98-12.04s1.79-8.85,4.98-12.04
			c3.19-3.19,7.53-4.99,12.04-4.99h68.1c4.51,0,8.84,1.79,12.04,4.99C810.21,498.77,812,503.1,812,507.61z M369.37,507.61
			c0,4.52-1.79,8.85-4.99,12.04c-3.19,3.19-7.52,4.99-12.04,4.99h-68.1c-4.52,0-8.85-1.79-12.04-4.99
			c-3.19-3.19-4.99-7.52-4.99-12.04s1.79-8.85,4.99-12.04c3.19-3.19,7.52-4.99,12.04-4.99h68.1c4.52,0,8.85,1.79,12.04,4.99
			C367.57,498.77,369.37,503.1,369.37,507.61z M732.23,315c3.19,3.19,4.98,7.52,4.98,12.04s-1.79,8.84-4.98,12.04l-48.15,48.18
			c-1.58,1.58-3.46,2.83-5.53,3.69c-2.07,0.85-4.28,1.29-6.52,1.29c-4.52,0-8.85-1.8-12.04-5c-1.58-1.58-2.84-3.46-3.69-5.53
			c-0.85-2.07-1.29-4.28-1.29-6.52c0-4.52,1.8-8.85,5-12.04L708.15,315c3.19-3.19,7.53-4.98,12.04-4.98S729.03,311.81,732.23,315z
			 M419.22,628.01c3.19,3.19,4.98,7.52,4.98,12.04c0,4.51-1.79,8.84-4.98,12.04l-48.14,48.15c-3.21,3.1-7.51,4.82-11.98,4.78
			c-4.46-0.04-8.73-1.83-11.89-4.99c-3.16-3.16-4.95-7.42-4.99-11.89c-0.04-4.46,1.68-8.76,4.78-11.98l48.14-48.14
			c3.19-3.19,7.52-4.98,12.04-4.98S416.02,624.82,419.22,628.01z M732.23,700.23c-3.19,3.19-7.52,4.98-12.04,4.98
			s-8.84-1.79-12.04-4.98l-48.14-48.15c-3.1-3.21-4.82-7.51-4.78-11.97c0.04-4.46,1.83-8.74,4.98-11.89
			c3.16-3.16,7.43-4.95,11.89-4.98c4.46-0.04,8.76,1.68,11.97,4.78l48.15,48.14c3.19,3.19,4.98,7.53,4.98,12.04
			S735.42,697.03,732.23,700.23z M419.22,387.25c-3.19,3.19-7.52,4.98-12.04,4.98s-8.84-1.79-12.04-4.98L347,339.07
			c-1.63-1.57-2.92-3.45-3.82-5.53s-1.36-4.31-1.38-6.57c-0.02-2.26,0.41-4.5,1.27-6.59c0.86-2.09,2.12-3.99,3.72-5.59
			s3.5-2.86,5.59-3.72c2.09-0.86,4.33-1.29,6.59-1.27c2.26,0.02,4.49,0.49,6.57,1.38s3.96,2.19,5.53,3.82l48.14,48.14
			c1.59,1.58,2.84,3.46,3.7,5.53c0.86,2.07,1.3,4.29,1.3,6.52c0,2.24-0.44,4.46-1.3,6.52C422.06,383.79,420.8,385.67,419.22,387.25z
			"/>
	</g>
</g>
</svg>
