<?xml version="1.0" encoding="utf-8"?>
<!-- Generator: Adobe Illustrator 27.2.0, SVG Export Plug-In . SVG Version: 6.00 Build 0)  -->
<svg version="1.1" id="Layer_1" xmlns="http://www.w3.org/2000/svg" xmlns:xlink="http://www.w3.org/1999/xlink" x="0px" y="0px"
	 viewBox="0 0 1080 1080" style="enable-background:new 0 0 1080 1080;" xml:space="preserve">
<style type="text/css">
	.st0{fill-rule:evenodd;clip-rule:evenodd;fill:#0047AB;}
</style>
<path class="st0" d="M539.77,212.63c11.51,0,22.55,4.32,30.69,12c8.14,7.68,12.71,18.1,12.71,28.96v215.78l198.02-107.89
	c4.94-2.73,10.4-4.51,16.07-5.25c5.67-0.73,11.44-0.4,16.97,0.98c5.54,1.38,10.72,3.78,15.27,7.06c4.54,3.28,8.36,7.38,11.22,12.06
	c2.86,4.68,4.72,9.84,5.46,15.2c0.74,5.36,0.34,10.8-1.16,16.01c-1.5,5.21-4.08,10.09-7.58,14.36c-3.51,4.27-7.87,7.84-12.85,10.51
	L626.58,540.32L824.6,648.21c4.98,2.67,9.34,6.24,12.85,10.51c3.51,4.27,6.09,9.15,7.58,14.36c1.5,5.21,1.89,10.66,1.16,16.01
	c-0.74,5.36-2.59,10.52-5.46,15.2c-2.86,4.68-6.68,8.78-11.22,12.06c-4.55,3.28-9.74,5.68-15.27,7.06
	c-5.53,1.38-11.3,1.72-16.97,0.98c-5.67-0.73-11.13-2.51-16.07-5.25L583.18,611.26v215.78c0,10.87-4.57,21.28-12.71,28.96
	c-8.14,7.68-19.18,12-30.69,12c-11.51,0-22.55-4.32-30.69-12c-8.14-7.68-12.71-18.1-12.71-28.96V611.26L298.36,719.15
	c-4.94,2.73-10.4,4.52-16.07,5.25c-5.67,0.73-11.44,0.4-16.97-0.98c-5.53-1.38-10.72-3.78-15.27-7.06s-8.36-7.38-11.22-12.06
	c-2.86-4.68-4.72-9.84-5.45-15.2c-0.74-5.36-0.35-10.8,1.15-16.01c1.5-5.21,4.08-10.09,7.58-14.36c3.51-4.27,7.87-7.84,12.85-10.51
	l198.01-107.89L254.95,432.43c-9.89-5.47-17.08-14.41-20.01-24.87c-2.93-10.46-1.36-21.58,4.37-30.95
	c5.73-9.37,15.16-16.21,26.22-19.05c11.06-2.83,22.86-1.42,32.83,3.92l198.01,107.89V253.6c0-10.86,4.57-21.28,12.71-28.96
	C517.22,216.95,528.26,212.63,539.77,212.63L539.77,212.63z"/>
</svg>
