<?xml version="1.0" encoding="utf-8"?>
<!-- Generator: Adobe Illustrator 27.2.0, SVG Export Plug-In . SVG Version: 6.00 Build 0)  -->
<svg version="1.1" id="Layer_1" xmlns="http://www.w3.org/2000/svg" xmlns:xlink="http://www.w3.org/1999/xlink" x="0px" y="0px"
	 viewBox="0 0 39 42" style="enable-background:new 0 0 39 42;" xml:space="preserve">
<style type="text/css">
	.st0{fill-rule:evenodd;clip-rule:evenodd;}
</style>
<path class="st0" d="M3.4,40.4c-0.6,0-1.1-0.2-1.5-0.6c-0.4-0.4-0.6-1-0.6-1.6l0.1-35c0-0.6,0.2-1.1,0.6-1.5s1-0.6,1.6-0.6
	C4,1.1,4.6,1.3,5,1.7c0.4,0.4,0.6,1,0.6,1.6l-0.1,35c0,0.6-0.2,1.1-0.6,1.5C4.5,40.2,3.9,40.4,3.4,40.4z"/>
<path d="M5.2,17.7L33,1.6c2.4-1.4,5.4,0.3,5.4,3.1l-0.1,32.3c0,2.8-3,4.4-5.4,3L5.2,23.8c-0.5-0.3-1-0.8-1.3-1.3
	c-0.3-0.5-0.5-1.1-0.5-1.8c0-0.6,0.2-1.2,0.5-1.8C4.2,18.4,4.6,18,5.2,17.7z"/>
</svg>
