<?xml version="1.0" encoding="utf-8"?>
<!-- Generator: Adobe Illustrator 27.2.0, SVG Export Plug-In . SVG Version: 6.00 Build 0)  -->
<svg version="1.1" id="Layer_1" xmlns="http://www.w3.org/2000/svg" xmlns:xlink="http://www.w3.org/1999/xlink" x="0px" y="0px"
	 viewBox="0 0 100 100" style="enable-background:new 0 0 100 100;" xml:space="preserve">
<style type="text/css">
	.st0{clip-path:url(#SVGID_00000146494199875544260250000002347526046157042361_);}
	.st1{fill-rule:evenodd;clip-rule:evenodd;fill:#D27D2D;}
	.st2{fill:none;stroke:#D27D2D;stroke-width:5;}
	.st3{fill:none;stroke:#D27D2D;stroke-width:5;stroke-miterlimit:4;}
</style>
<g>
	<defs>
		<rect id="SVGID_1_" x="8.73" y="1.98" width="83.27" height="79.21"/>
	</defs>
	<clipPath id="SVGID_00000135693190050939607510000005596939698465174973_">
		<use xlink:href="#SVGID_1_"  style="overflow:visible;"/>
	</clipPath>
	<g style="clip-path:url(#SVGID_00000135693190050939607510000005596939698465174973_);">
		<path class="st1" d="M46.25,5.94c2.5-2.5,4.11-3.96,4.11-3.96c0.57,1.8,1.22,3.5,1.93,5.14c4.23,9.63,10.79,16.58,16.64,22.77
			c6.82,7.22,12.66,13.4,12.66,21.59c0,7.88-3.29,15.43-9.15,21c-5.86,5.57-13.8,8.7-22.08,8.7s-16.22-3.13-22.08-8.7
			c-5.86-5.57-9.15-13.13-9.15-21C19.14,34.99,37.77,14.44,46.25,5.94z M48.4,10.99c-3.34,3.44-6.52,7.02-9.52,10.74
			c-3.78,4.7-7.47,9.94-10.2,15.2c-2.76,5.31-4.34,10.29-4.34,14.55c0,6.56,2.74,12.86,7.62,17.5s11.5,7.25,18.4,7.25
			s13.52-2.61,18.4-7.25s7.62-10.94,7.62-17.5c0-5.95-4.14-10.68-11.35-18.32l-0.16-0.16C59.47,27.28,52.97,20.39,48.4,10.99
			L48.4,10.99z"/>
		<path class="st2" d="M47.59,31.68c-2.78,18.48,3.47,34.1,6.94,39.6"/>
		<line class="st3" x1="51.74" y1="67.34" x2="57.33" y2="50.84"/>
		<line class="st2" x1="48.11" y1="55.55" x2="35.16" y2="46.63"/>
	</g>
</g>
<line class="st3" x1="56.15" y1="98.82" x2="51.68" y2="78.31"/>
</svg>
