<?xml version="1.0" encoding="utf-8"?>
<!-- Generator: Adobe Illustrator 27.2.0, SVG Export Plug-In . SVG Version: 6.00 Build 0)  -->
<svg version="1.1" id="Layer_1" xmlns="http://www.w3.org/2000/svg" xmlns:xlink="http://www.w3.org/1999/xlink" x="0px" y="0px"
	 viewBox="0 0 722 745" style="enable-background:new 0 0 722 745;" xml:space="preserve">
<style type="text/css">
	.st0{opacity:0.2;}
	.st1{fill:none;}
	.st2{fill-rule:evenodd;clip-rule:evenodd;fill:#D27D2D;}
	.st3{fill:none;stroke:#D27D2D;stroke-width:20;}
	.st4{opacity:0.2;fill:#D27D2D;}
</style>
<g class="st0">
	<g>
		<rect x="187.37" y="177.31" class="st1" width="339.64" height="323.08"/>
		<g>
			<path class="st2" d="M340.4,193.47c10.2-10.2,16.76-16.15,16.76-16.15c2.32,7.34,4.98,14.28,7.87,20.96
				c17.25,39.28,44.01,67.63,67.87,92.87c27.82,29.45,51.64,54.65,51.64,88.06c0,32.14-13.42,62.93-37.32,85.65
				c-23.9,22.72-56.29,35.48-90.06,35.48s-66.16-12.77-90.06-35.48s-37.32-53.55-37.32-85.65
				C229.82,311.95,305.81,228.13,340.4,193.47z M349.17,214.06c-13.62,14.03-26.59,28.63-38.83,43.81
				c-15.42,19.17-30.47,40.54-41.6,62c-11.26,21.66-17.7,41.97-17.7,59.35c0,26.76,11.18,52.45,31.08,71.38
				c19.9,18.93,46.91,29.57,75.05,29.57c28.14,0,55.14-10.65,75.05-29.57c19.9-18.93,31.08-44.62,31.08-71.38
				c0-24.27-16.89-43.56-46.29-74.72l-0.65-0.65C394.32,280.51,367.81,252.4,349.17,214.06L349.17,214.06z"/>
			<path class="st3" d="M345.86,298.45c-11.34,75.37,14.15,139.08,28.31,161.52"/>
			<line class="st3" x1="362.79" y1="443.9" x2="385.59" y2="376.6"/>
			<line class="st3" x1="347.98" y1="395.81" x2="295.17" y2="359.43"/>
		</g>
	</g>
</g>
<polygon class="st4" points="403.45,568.74 384.08,573.38 366,500 376,499 386,497 "/>
</svg>
