<?xml version="1.0" encoding="utf-8"?>
<!-- Generator: Adobe Illustrator 27.2.0, SVG Export Plug-In . SVG Version: 6.00 Build 0)  -->
<svg version="1.1" id="Layer_1" xmlns="http://www.w3.org/2000/svg" xmlns:xlink="http://www.w3.org/1999/xlink" x="0px" y="0px"
	 viewBox="0 0 39 42" style="enable-background:new 0 0 39 42;" xml:space="preserve">
<style type="text/css">
	.st0{fill-rule:evenodd;clip-rule:evenodd;}
</style>
<path class="st0" d="M36.2,1.08c0.58,0,1.14,0.23,1.55,0.64c0.41,0.41,0.64,0.97,0.64,1.55v35c0,0.58-0.23,1.14-0.64,1.55
	c-0.41,0.41-0.97,0.64-1.55,0.64s-1.14-0.23-1.55-0.64c-0.41-0.41-0.64-0.97-0.64-1.55v-35c0-0.58,0.23-1.14,0.64-1.55
	C35.07,1.31,35.62,1.08,36.2,1.08z"/>
<path d="M34.44,23.82L6.6,39.97c-2.36,1.37-5.39-0.29-5.39-3.05V4.62c0-2.76,3.03-4.42,5.39-3.05l27.84,16.15
	c0.54,0.31,0.98,0.75,1.29,1.29c0.31,0.54,0.47,1.14,0.47,1.76c0,0.62-0.16,1.23-0.47,1.76C35.42,23.07,34.97,23.51,34.44,23.82z"/>
</svg>
