<?xml version="1.0" encoding="utf-8"?>
<!-- Generator: Adobe Illustrator 27.2.0, SVG Export Plug-In . SVG Version: 6.00 Build 0)  -->
<svg version="1.1" id="Layer_1" xmlns="http://www.w3.org/2000/svg" xmlns:xlink="http://www.w3.org/1999/xlink" x="0px" y="0px"
	 viewBox="0 0 722 745" style="enable-background:new 0 0 722 745;" xml:space="preserve">
<style type="text/css">
	.st0{opacity:0.2;}
	.st1{clip-path:url(#SVGID_00000004547715392089730850000011712473998717889193_);}
	.st2{fill-rule:evenodd;clip-rule:evenodd;fill:#87A96B;}
</style>
<g class="st0">
	<g>
		<defs>
			<rect id="SVGID_1_" x="163.73" y="174.99" width="395.01" height="395.01"/>
		</defs>
		<clipPath id="SVGID_00000029047661661330907160000013153260312010281870_">
			<use xlink:href="#SVGID_1_"  style="overflow:visible;"/>
		</clipPath>
		<g style="clip-path:url(#SVGID_00000029047661661330907160000013153260312010281870_);">
			<path class="st2" d="M361.24,446.55c19.63,0,38.46-7.82,52.39-21.7c13.89-13.89,21.7-32.72,21.7-52.39
				c0-19.67-7.82-38.46-21.7-52.39c-13.89-13.89-32.72-21.7-52.39-21.7s-38.46,7.82-52.39,21.7c-13.89,13.89-21.7,32.72-21.7,52.39
				c0,19.67,7.82,38.46,21.7,52.39C322.73,438.73,341.61,446.55,361.24,446.55z M361.24,471.25c26.2,0,51.31-10.39,69.81-28.94
				c18.5-18.5,28.94-43.62,28.94-69.81s-10.39-51.31-28.94-69.81c-18.54-18.5-43.62-28.94-69.81-28.94s-51.31,10.39-69.81,28.94
				c-18.5,18.54-28.94,43.62-28.94,69.81s10.39,51.31,28.94,69.81C309.93,460.81,335.04,471.25,361.24,471.25z M361.24,174.99
				c3.28,0,6.4,1.29,8.73,3.62c2.33,2.33,3.62,5.45,3.62,8.73v49.4c0,3.28-1.29,6.4-3.62,8.73c-2.33,2.33-5.45,3.62-8.73,3.62
				c-3.28,0-6.4-1.29-8.73-3.62c-2.33-2.33-3.62-5.45-3.62-8.73v-49.4c0-3.28,1.29-6.4,3.62-8.73
				C354.83,176.28,357.95,174.99,361.24,174.99L361.24,174.99z M361.24,495.9c3.28,0,6.4,1.29,8.73,3.62
				c2.33,2.33,3.62,5.45,3.62,8.73v49.4c0,3.28-1.29,6.4-3.62,8.73c-2.33,2.33-5.45,3.62-8.73,3.62c-3.28,0-6.4-1.29-8.73-3.62
				c-2.33-2.33-3.62-5.45-3.62-8.73v-49.4c0-3.28,1.29-6.4,3.62-8.73C354.83,497.23,357.95,495.9,361.24,495.9z M558.74,372.5
				c0,3.28-1.29,6.4-3.62,8.73c-2.33,2.33-5.45,3.62-8.73,3.62h-49.36c-3.28,0-6.4-1.29-8.73-3.62c-2.33-2.33-3.62-5.45-3.62-8.73
				c0-3.28,1.29-6.4,3.62-8.73c2.33-2.33,5.45-3.62,8.73-3.62h49.4c3.28,0,6.4,1.29,8.73,3.62
				C557.45,366.05,558.74,369.21,558.74,372.5z M237.78,372.5c0,3.28-1.29,6.4-3.62,8.73c-2.33,2.33-5.45,3.62-8.73,3.62h-49.36
				c-3.28,0-6.4-1.29-8.73-3.62c-2.33-2.33-3.62-5.45-3.62-8.73c0-3.28,1.29-6.4,3.62-8.73c2.33-2.33,5.45-3.62,8.73-3.62h49.4
				c3.28,0,6.4,1.29,8.73,3.62C236.49,366.05,237.78,369.21,237.78,372.5z M500.9,232.83c2.33,2.33,3.62,5.45,3.62,8.73
				s-1.29,6.4-3.62,8.73l-34.93,34.93c-1.16,1.16-2.49,2.04-3.99,2.66s-3.12,0.96-4.74,0.96c-3.28,0-6.4-1.29-8.73-3.62
				c-1.16-1.16-2.04-2.49-2.66-3.99s-0.96-3.12-0.96-4.74c0-3.28,1.29-6.4,3.62-8.73l34.93-34.93c2.33-2.33,5.45-3.62,8.73-3.62
				S498.57,230.5,500.9,232.83z M273.92,459.77c2.33,2.33,3.62,5.45,3.62,8.73s-1.29,6.4-3.62,8.73l-34.93,34.93
				c-2.33,2.25-5.45,3.49-8.69,3.45c-3.24-0.04-6.32-1.33-8.61-3.62s-3.58-5.41-3.62-8.61c-0.04-3.24,1.21-6.36,3.45-8.69
				l34.93-34.93c2.33-2.33,5.45-3.62,8.73-3.62S271.63,457.48,273.92,459.77z M500.9,512.16c-2.33,2.33-5.45,3.62-8.73,3.62
				s-6.4-1.29-8.73-3.62l-34.93-34.93c-2.25-2.33-3.49-5.45-3.45-8.69c0.04-3.24,1.33-6.32,3.62-8.61c2.29-2.29,5.41-3.58,8.61-3.62
				c3.24-0.04,6.36,1.21,8.69,3.45l34.93,34.93c2.33,2.33,3.62,5.45,3.62,8.73S503.19,509.83,500.9,512.16z M273.92,285.22
				c-2.33,2.33-5.45,3.62-8.73,3.62c-3.28,0-6.4-1.29-8.73-3.62l-34.93-34.93c-1.16-1.12-2.12-2.49-2.79-3.99
				c-0.67-1.5-1-3.12-1-4.78c0-1.62,0.29-3.28,0.91-4.78c0.62-1.5,1.54-2.91,2.7-4.07s2.54-2.08,4.07-2.7
				c1.5-0.62,3.16-0.91,4.78-0.91c1.62,0,3.24,0.37,4.78,1c1.54,0.62,2.87,1.58,3.99,2.79l34.93,34.93c1.16,1.16,2.08,2.49,2.7,3.99
				s0.96,3.12,0.96,4.74s-0.33,3.24-0.96,4.74C276,282.68,275.08,284.05,273.92,285.22z"/>
		</g>
	</g>
</g>
</svg>
