<?xml version="1.0" encoding="utf-8"?>
<!-- Generator: Adobe Illustrator 27.2.0, SVG Export Plug-In . SVG Version: 6.00 Build 0)  -->
<svg version="1.1" id="Layer_1" xmlns="http://www.w3.org/2000/svg" xmlns:xlink="http://www.w3.org/1999/xlink" x="0px" y="0px"
	 viewBox="0 0 100 100" style="enable-background:new 0 0 100 100;" xml:space="preserve">
<style type="text/css">
	.st0{clip-path:url(#SVGID_00000120539643846084535540000014482962184997021848_);}
	.st1{fill-rule:evenodd;clip-rule:evenodd;fill:#87A96B;}
</style>
<g>
	<defs>
		<rect id="SVGID_1_" x="2.73" y="2.99" width="95" height="95"/>
	</defs>
	<clipPath id="SVGID_00000094580490242451128220000004147306902597702310_">
		<use xlink:href="#SVGID_1_"  style="overflow:visible;"/>
	</clipPath>
	<g style="clip-path:url(#SVGID_00000094580490242451128220000004147306902597702310_);">
		<path class="st1" d="M50.23,68.3c4.72,0,9.25-1.88,12.6-5.22c3.34-3.34,5.22-7.87,5.22-12.6s-1.88-9.25-5.22-12.6
			c-3.34-3.34-7.87-5.22-12.6-5.22s-9.25,1.88-12.6,5.22c-3.34,3.34-5.22,7.87-5.22,12.6s1.88,9.25,5.22,12.6
			C40.97,66.42,45.51,68.3,50.23,68.3z M50.23,74.24c6.3,0,12.34-2.5,16.79-6.96c4.45-4.45,6.96-10.49,6.96-16.79
			s-2.5-12.34-6.96-16.79s-10.49-6.96-16.79-6.96s-12.34,2.5-16.79,6.96s-6.96,10.49-6.96,16.79s2.5,12.34,6.96,16.79
			C37.89,71.73,43.93,74.24,50.23,74.24z M50.23,2.99c0.79,0,1.54,0.31,2.1,0.87c0.56,0.56,0.87,1.31,0.87,2.1v11.88
			c0,0.79-0.31,1.54-0.87,2.1c-0.56,0.56-1.31,0.87-2.1,0.87s-1.54-0.31-2.1-0.87c-0.56-0.56-0.87-1.31-0.87-2.1V5.96
			c0-0.79,0.31-1.54,0.87-2.1C48.69,3.3,49.44,2.99,50.23,2.99L50.23,2.99z M50.23,80.17c0.79,0,1.54,0.31,2.1,0.87
			c0.56,0.56,0.87,1.31,0.87,2.1v11.88c0,0.79-0.31,1.54-0.87,2.1c-0.56,0.56-1.31,0.87-2.1,0.87s-1.54-0.31-2.1-0.87
			c-0.56-0.56-0.87-1.31-0.87-2.1V83.14c0-0.79,0.31-1.54,0.87-2.1C48.69,80.49,49.44,80.17,50.23,80.17z M97.73,50.49
			c0,0.79-0.31,1.54-0.87,2.1c-0.56,0.56-1.31,0.87-2.1,0.87H82.89c-0.79,0-1.54-0.31-2.1-0.87c-0.56-0.56-0.87-1.31-0.87-2.1
			s0.31-1.54,0.87-2.1c0.56-0.56,1.31-0.87,2.1-0.87h11.88c0.79,0,1.54,0.31,2.1,0.87C97.42,48.94,97.73,49.7,97.73,50.49z
			 M20.54,50.49c0,0.79-0.31,1.54-0.87,2.1c-0.56,0.56-1.31,0.87-2.1,0.87H5.7c-0.79,0-1.54-0.31-2.1-0.87
			c-0.56-0.56-0.87-1.31-0.87-2.1s0.31-1.54,0.87-2.1c0.56-0.56,1.31-0.87,2.1-0.87h11.88c0.79,0,1.54,0.31,2.1,0.87
			C20.23,48.94,20.54,49.7,20.54,50.49z M83.82,16.9c0.56,0.56,0.87,1.31,0.87,2.1s-0.31,1.54-0.87,2.1l-8.4,8.4
			c-0.28,0.28-0.6,0.49-0.96,0.64c-0.36,0.15-0.75,0.23-1.14,0.23c-0.79,0-1.54-0.31-2.1-0.87c-0.28-0.28-0.49-0.6-0.64-0.96
			c-0.15-0.36-0.23-0.75-0.23-1.14c0-0.79,0.31-1.54,0.87-2.1l8.4-8.4c0.56-0.56,1.31-0.87,2.1-0.87S83.26,16.34,83.82,16.9z
			 M29.23,71.48c0.56,0.56,0.87,1.31,0.87,2.1s-0.31,1.54-0.87,2.1l-8.4,8.4c-0.56,0.54-1.31,0.84-2.09,0.83
			c-0.78-0.01-1.52-0.32-2.07-0.87c-0.55-0.55-0.86-1.3-0.87-2.07c-0.01-0.78,0.29-1.53,0.83-2.09l8.4-8.4
			c0.56-0.56,1.31-0.87,2.1-0.87C27.92,70.61,28.68,70.93,29.23,71.48z M83.82,84.08c-0.56,0.56-1.31,0.87-2.1,0.87
			s-1.54-0.31-2.1-0.87l-8.4-8.4c-0.54-0.56-0.84-1.31-0.83-2.09c0.01-0.78,0.32-1.52,0.87-2.07c0.55-0.55,1.3-0.86,2.07-0.87
			c0.78-0.01,1.53,0.29,2.09,0.83l8.4,8.4c0.56,0.56,0.87,1.31,0.87,2.1S84.37,83.52,83.82,84.08z M29.23,29.5
			c-0.56,0.56-1.31,0.87-2.1,0.87c-0.79,0-1.54-0.31-2.1-0.87l-8.4-8.4c-0.28-0.27-0.51-0.6-0.67-0.96
			c-0.16-0.36-0.24-0.75-0.24-1.15c0-0.39,0.07-0.79,0.22-1.15c0.15-0.36,0.37-0.7,0.65-0.98c0.28-0.28,0.61-0.5,0.98-0.65
			c0.36-0.15,0.76-0.22,1.15-0.22c0.39,0,0.78,0.09,1.15,0.24s0.69,0.38,0.96,0.67l8.4,8.4c0.28,0.28,0.5,0.6,0.65,0.96
			c0.15,0.36,0.23,0.75,0.23,1.14c0,0.39-0.08,0.78-0.23,1.14C29.73,28.89,29.51,29.22,29.23,29.5z"/>
	</g>
</g>
</svg>
