<?xml version="1.0" encoding="utf-8"?>
<!-- Generator: Adobe Illustrator 27.2.0, SVG Export Plug-In . SVG Version: 6.00 Build 0)  -->
<svg version="1.1" id="Layer_1" xmlns="http://www.w3.org/2000/svg" xmlns:xlink="http://www.w3.org/1999/xlink" x="0px" y="0px"
	 viewBox="0 0 722 745" style="enable-background:new 0 0 722 745;" xml:space="preserve">
<style type="text/css">
	.st0{opacity:0.1;fill-rule:evenodd;clip-rule:evenodd;fill:#0047AB;enable-background:new    ;}
</style>
<path class="st0" d="M361.23,184c6.24,0,12.24,2.5,16.69,6.91c4.41,4.41,6.91,10.41,6.91,16.69v124.23l107.62-62.13
	c2.7-1.59,5.64-2.58,8.74-3.02s6.2-0.24,9.22,0.56c3.02,0.79,5.84,2.18,8.3,4.05c2.46,1.91,4.53,4.25,6.12,6.95
	c1.55,2.7,2.58,5.68,2.98,8.74c0.4,3.1,0.2,6.24-0.64,9.22c-0.83,3.02-2.22,5.8-4.13,8.26c-1.91,2.46-4.29,4.53-6.99,6.04
	l-107.63,62.2l107.62,62.13c2.7,1.55,5.09,3.58,6.99,6.04c1.91,2.46,3.3,5.28,4.13,8.26c0.83,3.02,1.03,6.12,0.64,9.22
	c-0.4,3.1-1.39,6.08-2.98,8.74c-1.55,2.7-3.62,5.05-6.12,6.95c-2.46,1.91-5.28,3.26-8.3,4.05c-3.02,0.79-6.16,0.99-9.22,0.56
	c-3.1-0.44-6.04-1.43-8.74-3.02l-107.62-62.09v124.27c0,6.24-2.5,12.24-6.91,16.69c-4.41,4.41-10.41,6.91-16.69,6.91
	s-12.24-2.5-16.69-6.91c-4.41-4.41-6.91-10.41-6.91-16.69V413.54l-107.58,62.13c-2.7,1.59-5.64,2.58-8.74,3.02s-6.2,0.24-9.22-0.56
	s-5.84-2.19-8.3-4.05c-2.46-1.91-4.53-4.25-6.12-6.95c-1.55-2.7-2.58-5.68-2.98-8.74c-0.4-3.1-0.2-6.24,0.64-9.22
	c0.83-3.02,2.22-5.8,4.13-8.26c1.91-2.46,4.29-4.53,6.99-6.04l107.62-62.17l-107.62-62.13c-5.36-3.14-9.3-8.3-10.89-14.3
	c-1.59-6.04-0.75-12.43,2.38-17.84c3.1-5.4,8.22-9.34,14.26-10.96c6-1.63,12.43-0.83,17.84,2.26l107.58,62.09V207.56
	c0-6.24,2.5-12.24,6.91-16.69C348.99,186.46,354.99,184,361.23,184L361.23,184z"/>
</svg>
